<svg width="262" height="65" viewBox="0 0 262 65" fill="none" xmlns="http://www.w3.org/2000/svg">
<g clip-path="url(#clip0_160_41)">
<path d="M260.653 2.04104L0.0123291 3.53685L0.361487 64.3765L261.002 62.8807L260.653 2.04104Z" fill="#D21E1E"/>
<path fill-rule="evenodd" clip-rule="evenodd" d="M64.283 24.7639C67.3993 14.4463 58.1707 11.3614 48.4837 11.417C38.6678 11.4733 28.2815 14.3162 25.4581 24.454C24.4116 29.0772 25.853 32.9755 30.1659 34.8453C39.4419 38.8766 49.3491 37.5765 48.0286 43.3852C47.3831 46.2301 43.2312 47.6753 40.2296 47.6925C35.5482 47.7193 32.8062 45.5438 33.7793 41.5131L20.7779 41.5877C18.3308 53.204 27.2975 56.0636 38.2196 56.001C49.0751 55.9387 59.799 51.6054 61.8498 42.5952C64.471 31.0373 53.1988 30.3913 45.7442 28.6001C42.4887 27.7895 38.5603 26.8061 39.2692 23.6641C39.7551 21.5308 42.7567 19.7376 45.7468 19.7204C47.9578 19.7077 49.5418 20.172 50.446 21.0554C51.4155 21.9372 51.7151 23.1787 51.2816 24.8385L64.283 24.7639ZM102.065 54.7367L103.957 46.4381L81.2039 46.5687L83.2645 37.5005L104.198 37.3804L106.079 29.0819L85.1456 29.202L87.1526 20.3701L109.908 20.2395L111.799 11.9423L76.0425 12.1475L66.3097 54.9419L102.065 54.7367ZM109.412 54.6945L121.113 54.6274L128.565 21.8491L128.694 21.8483L137.171 54.5352L155.178 54.4319L164.912 11.6375L153.211 11.7046L145.981 43.4744L145.83 43.5939L137.349 11.7956L119.145 11.9001L109.412 54.6945ZM172.991 54.3296L177.949 45.9541L196.997 45.8448L198.215 54.1849L212.908 54.1006L204.114 11.4125L188.251 11.5035L159.99 54.4043L172.991 54.3296ZM183.146 37.6366L193.565 19.8187L193.761 19.8176L195.693 37.5646L183.146 37.6366ZM230.851 53.9976L240.586 11.2032L227.583 11.2778L217.85 54.0722L230.851 53.9976Z" fill="white"/>
<path fill-rule="evenodd" clip-rule="evenodd" d="M0.18335 33.3221L13.8418 33.2438L13.8491 34.5142L0.190641 34.5926L0.18335 33.3221Z" fill="white"/>
<path fill-rule="evenodd" clip-rule="evenodd" d="M0.124268 23.0347L13.7827 22.9563L13.79 24.2267L0.131558 24.3051L0.124268 23.0347Z" fill="white"/>
<path fill-rule="evenodd" clip-rule="evenodd" d="M0.0651855 12.7487L13.7237 12.6703L13.7309 13.9408L0.0724766 14.0191L0.0651855 12.7487Z" fill="white"/>
<path fill-rule="evenodd" clip-rule="evenodd" d="M0.24231 43.6083L13.9008 43.5299L13.9081 44.8003L0.249601 44.8787L0.24231 43.6083Z" fill="white"/>
<path fill-rule="evenodd" clip-rule="evenodd" d="M0.301392 53.8943L13.9599 53.8159L13.9672 55.0863L0.308683 55.1647L0.301392 53.8943Z" fill="white"/>
<path fill-rule="evenodd" clip-rule="evenodd" d="M247.166 31.9047L260.825 31.8263L260.832 33.0968L247.174 33.1751L247.166 31.9047Z" fill="white"/>
<path fill-rule="evenodd" clip-rule="evenodd" d="M247.107 21.6174L260.766 21.539L260.773 22.8094L247.114 22.8878L247.107 21.6174Z" fill="white"/>
<path fill-rule="evenodd" clip-rule="evenodd" d="M247.048 11.3313L260.707 11.2529L260.714 12.5233L247.055 12.6017L247.048 11.3313Z" fill="white"/>
<path fill-rule="evenodd" clip-rule="evenodd" d="M247.225 42.1909L260.884 42.1125L260.891 43.3829L247.233 43.4613L247.225 42.1909Z" fill="white"/>
<path fill-rule="evenodd" clip-rule="evenodd" d="M247.284 52.4768L260.943 52.3985L260.95 53.6689L247.292 53.7473L247.284 52.4768Z" fill="white"/>
</g>
<defs>
<clipPath id="clip0_160_41">
<rect width="260.653" height="62.8409" fill="white" transform="translate(0 1.49586) rotate(-0.328816)"/>
</clipPath>
</defs>
</svg>
